<mxfile host="app.diagrams.net" modified="2024-06-24T21:20:11.496Z" agent="Mozilla/5.0 (Windows NT 10.0; Win64; x64; rv:127.0) Gecko/20100101 Firefox/127.0" etag="PzeM3RX7bIqO63fnUFxq" version="24.6.2" type="github">
  <diagram name="Page-1" id="fFU6kmNKjXrWv-Bi-IHi">
    <mxGraphModel dx="1434" dy="774" grid="1" gridSize="10" guides="1" tooltips="1" connect="1" arrows="1" fold="1" page="1" pageScale="1" pageWidth="850" pageHeight="1100" math="0" shadow="0">
      <root>
        <mxCell id="0" />
        <mxCell id="1" parent="0" />
        <mxCell id="YzhTIJKIC8dBr2XlwUYN-1" value="" style="ellipse;whiteSpace=wrap;html=1;fillColor=#d5e8d4;strokeColor=#82b366;" vertex="1" parent="1">
          <mxGeometry x="225" y="155" width="410" height="410" as="geometry" />
        </mxCell>
        <mxCell id="YzhTIJKIC8dBr2XlwUYN-2" value="&lt;div&gt;Player&lt;/div&gt;" style="shape=umlActor;verticalLabelPosition=bottom;verticalAlign=top;html=1;fillColor=#dae8fc;strokeColor=#6c8ebf;gradientColor=#7ea6e0;" vertex="1" parent="1">
          <mxGeometry x="425" y="350" width="10" height="20" as="geometry" />
        </mxCell>
        <mxCell id="YzhTIJKIC8dBr2XlwUYN-3" value="&lt;div&gt;ENEMY GARRISON&lt;/div&gt;&lt;div&gt;&lt;br&gt;&lt;/div&gt;" style="rounded=0;whiteSpace=wrap;html=1;fillColor=#f8cecc;strokeColor=#b85450;gradientColor=#ea6b66;" vertex="1" parent="1">
          <mxGeometry x="370" y="210" width="120" height="60" as="geometry" />
        </mxCell>
        <mxCell id="YzhTIJKIC8dBr2XlwUYN-4" value="&lt;div&gt;Mana&lt;/div&gt;&lt;div&gt;Mine&lt;/div&gt;" style="rhombus;whiteSpace=wrap;html=1;fillColor=#dae8fc;gradientColor=#7ea6e0;strokeColor=#6c8ebf;" vertex="1" parent="1">
          <mxGeometry x="280" y="430" width="80" height="80" as="geometry" />
        </mxCell>
        <mxCell id="YzhTIJKIC8dBr2XlwUYN-5" value="&lt;div&gt;Mana&lt;/div&gt;&lt;div&gt;Mine&lt;/div&gt;" style="rhombus;whiteSpace=wrap;html=1;fillColor=#dae8fc;gradientColor=#7ea6e0;strokeColor=#6c8ebf;" vertex="1" parent="1">
          <mxGeometry x="500" y="430" width="80" height="80" as="geometry" />
        </mxCell>
      </root>
    </mxGraphModel>
  </diagram>
</mxfile>
